<svg height="32.099" viewBox="0 0 22.494 32.099" width="22.494" xmlns="http://www.w3.org/2000/svg"><path d="m98.847 10.234a4.816 4.816 0 0 0 -1.906-2.587c0-.065.007-.131.007-.2.311-5.63-2.956-6.407-3.1-6.437a.535.535 0 0 0 -.648.5c0 .11-.154 2.7-3.745 2.7h-7.49a3.213 3.213 0 0 0 -3.21 3.21c0 .076 0 .151.009.226a4.816 4.816 0 0 0 -1.908 2.588c-.6 1.917-.137 4.258 1.366 6.959q-.017.485-.017.987c0 3.654.359 7.376 2.962 9.848a13.052 13.052 0 0 0 1.333 1.089v3.447a.535.535 0 0 0 1.07 0v-2.708l.165.11.4.268.114.077c.065.044.13.091.194.136l.212.152.192.141c.189.14.38.281.576.416a5.158 5.158 0 0 0 1.383.715 3.422 3.422 0 0 0 1.029.158 3.528 3.528 0 0 0 1.506-.342c.115-.053.227-.111.337-.172a10.929 10.929 0 0 0 1.145-.773l.274-.2c.107-.078.215-.154.323-.228l.514-.344.2-.131v2.728a.535.535 0 1 0 1.07 0v-3.467a12.911 12.911 0 0 0 1.3-1.068c2.6-2.472 2.962-6.193 2.962-9.848q0-.476-.016-.937c1.528-2.726 1.998-5.084 1.397-7.013zm-1.021.318a6.747 6.747 0 0 1 -.535 4.606 14.7 14.7 0 0 0 -1.559-5.223 3.221 3.221 0 0 0 .924-1.169 3.792 3.792 0 0 1 1.17 1.786zm-15.857-5.272h7.49c3.31 0 4.348-1.9 4.671-2.988.724.455 1.936 1.73 1.749 5.128a2.14 2.14 0 0 1 -1.023 1.825.535.535 0 0 0 -.1.042 2.1 2.1 0 0 1 -1.016.273h-11.771a2.1 2.1 0 0 1 -1.034-.282.539.539 0 0 0 -.1-.043 2.139 2.139 0 0 1 1.134-3.955zm-4.095 5.3a3.794 3.794 0 0 1 1.181-1.813 3.227 3.227 0 0 0 .9 1.154 14.639 14.639 0 0 0 -1.562 5.179 6.731 6.731 0 0 1 -.519-4.524zm15.9 16.675a12.789 12.789 0 0 1 -1.425 1.143l-.18.126-.105.073-.182.125-.066.044-.464.311-.31.208-.213.143c-.1.065-.19.132-.284.2-.117.084-.233.17-.349.256a10.336 10.336 0 0 1 -.979.669 2.725 2.725 0 0 1 -1.373.41 2.5 2.5 0 0 1 -1.047-.243 7.525 7.525 0 0 1 -1.3-.836c-.144-.107-.29-.214-.436-.318-.066-.047-.131-.093-.2-.138l-.141-.095-.365-.246c-.335-.224-.671-.449-1-.681h-.007a12.766 12.766 0 0 1 -1.432-1.148c-2.426-2.3-2.629-5.89-2.629-9.072a16.232 16.232 0 0 1 1.608-7.738 3.189 3.189 0 0 0 .806.175h.01l.122.008h.106 11.83.112l.111-.007h.017a3.2 3.2 0 0 0 .786-.167 16.242 16.242 0 0 1 1.6 7.729c.005 3.176-.195 6.763-2.626 9.066z" fill="#0000ff" transform="translate(-76.606 -1)"/></svg>