<svg clip-rule="evenodd" fill-rule="evenodd" height="600" image-rendering="optimizeQuality" shape-rendering="geometricPrecision" text-rendering="geometricPrecision" viewBox="0 0 420 600" width="420" xmlns="http://www.w3.org/2000/svg"><path d="m186.44 50c-102.8 0-186.44 83.64-186.44 186.44v285.31c0 15.57 12.68 28.25 28.26 28.25h81.91v-.01c.08 0 .16.01.23.01 4.68 0 8.48-3.8 8.48-8.47v-42.92c.88.59 1.76 1.19 2.64 1.77l8.11 5.45c3.21 2.18 6.35 4.5 9.48 6.81 13.56 10.04 27.59 20.41 47.33 20.41v-16.94c-14.15-.01-25.38-8.31-37.26-17.1-3.31-2.45-6.64-4.9-10.03-7.2l-8.21-5.51c-13.25-8.86-26.96-18.02-38.45-28.93-38.42-36.48-41.64-93.3-41.64-143.7 0-31 14.41-60.8 38.57-79.72 21.77-17.05 46.56-30.54 58.88-36.82 10.37 22.73 23.59 41.34 38.14 56.59v-25.93c-9.99-12.89-18.91-27.89-26.05-45.4-.87-2.14-2.58-3.83-4.73-4.68-2.16-.86-4.57-.77-6.66.19-1.56.71-38.19 17.76-70.03 42.71-28.64 22.44-45.07 56.35-45.07 93.06 0 57.89 5.69 116.85 46.93 156 6.64 6.3 13.79 11.94 21.1 17.24v46.14h-73.67c-6.24 0-11.31-5.07-11.31-11.3v-285.31c0-93.46 76.04-169.49 169.49-169.49v-16.95z" fill-rule="nonzero"/><path d="m416.05 193.84c-7.14-22.89-22.11-35.27-29.69-40.29.06-1.02.11-2.04.11-3.08 4.85-87.69-46.05-99.79-48.22-100.27-2.41-.54-4.92.04-6.87 1.54-1.95 1.51-3.13 3.79-3.23 6.25-.07 1.72-2.4 42.02-58.34 42.02h-25v16.67h25c51.56 0 67.73-29.66 72.76-46.55 11.27 7.09 30.16 26.95 27.24 79.88 0 12.01-6.38 22.55-15.93 28.42-.54.16-1.06.38-1.57.65-5.14 2.83-10.47 4.26-15.83 4.26h-91.67v16.67h91.67c.16 0 .31-.02.47-.02.58 0 1.17-.01 1.75-.04.58-.02 1.16-.07 1.73-.11.09-.01.18-.02.27-.02 4.25-.36 8.35-1.25 12.24-2.61 16.58 30.57 24.97 71.02 24.97 120.4 0 49.57-3.17 105.44-40.95 141.31-6.8 6.46-14.4 12.29-22.2 17.81-.94.66-1.87 1.31-2.81 1.96-.55.38-1.09.76-1.64 1.14-.95.65-1.89 1.3-2.84 1.94-.34.23-.68.46-1.02.7-2.4 1.62-4.81 3.23-7.22 4.84l-4.83 3.24-3.31 2.23c-1.49 1.01-2.97 2.05-4.43 3.11-1.83 1.31-3.64 2.64-5.44 3.98-5.11 3.78-10.1 7.46-15.25 10.41-6.57 3.76-13.42 6.34-21.16 6.39v16.66c8.72-.03 16.3-2.13 23.22-5.33 1.8-.82 3.55-1.72 5.26-2.68 6.3-3.52 12.11-7.81 17.84-12.04 1.42-1.06 2.84-2.11 4.27-3.15 1.67-1.21 3.34-2.4 5.04-3.56l8-5.36c1.01-.68 2.02-1.36 3.03-2.04v42.5c0 4.61 3.74 8.33 8.34 8.33s8.33-3.72 8.33-8.33v-54.03c7.03-5.11 13.9-10.56 20.29-16.63 40.55-38.5 46.15-96.47 46.15-153.4 0-4.95-.09-9.81-.25-14.59 23.77-42.4 31.09-79.14 21.72-109.18zm-15.91 4.95c6.2 19.91 3.39 43.96-8.33 71.74-3.93-31.59-12.04-58.81-24.28-81.34 6.13-4.85 11.09-11.09 14.4-18.21 5.9 4.98 13.86 13.84 18.21 27.81z" fill-rule="nonzero"/><path d="m207.29-.02h16.67v600h-16.67z"/></svg>