<svg height="32.099" viewBox="0 0 23.939 32.099" width="23.939" xmlns="http://www.w3.org/2000/svg"><path d="m77.054 0a11.983 11.983 0 0 0 -11.969 11.969v18.317a1.816 1.816 0 0 0 1.815 1.814h5.273a.544.544 0 0 0 .544-.544v-2.756l.17.114.521.35c.206.14.408.289.608.437a4.179 4.179 0 0 0 6.078 0c.2-.148.4-.3.608-.437l.521-.35.2-.134v2.775a.544.544 0 0 0 .529.543h5.258a1.816 1.816 0 0 0 1.814-1.814v-18.315a11.983 11.983 0 0 0 -11.97-11.969zm3.563 28.01-.527.354c-.218.148-.431.305-.644.462a4.13 4.13 0 0 1 -2.392 1.1 4.13 4.13 0 0 1 -2.392-1.1c-.213-.157-.426-.314-.644-.462l-.527-.354a18.341 18.341 0 0 1 -2.468-1.857c-2.467-2.342-2.674-5.99-2.674-9.225a6.54 6.54 0 0 1 2.476-5.118 24.545 24.545 0 0 1 3.78-2.364c2.911 6.378 9.3 7.711 11.152 7.968-.025 3.109-.328 6.514-2.672 8.739a18.364 18.364 0 0 1 -2.467 1.857zm7.318 2.276a.727.727 0 0 1 -.726.726h-4.7v-2.984a13.168 13.168 0 0 0 1.325-1.086c2.647-2.513 3.012-6.3 3.012-10.014a.545.545 0 0 0 -.513-.543c-.079 0-7.955-.535-10.952-7.884a.543.543 0 0 0 -.732-.288 25.716 25.716 0 0 0 -4.5 2.742 7.534 7.534 0 0 0 -2.893 5.974c0 3.716.365 7.5 3.012 10.014a13.271 13.271 0 0 0 1.355 1.107v2.962h-4.723a.727.727 0 0 1 -.726-.726v-18.317a10.881 10.881 0 0 1 21.762 0v18.317z" fill="#ff69b4 " transform="translate(-65.085)"/></svg>